# xmcd
#
# Track frame offsets: 
#        150
#        16009
#        31265
#        51421
#        70577
#        90993
#        107061
#        123001
#        144974
#        162113
#        178756
#        198207
#        217608
#        237065
#        251312
#        270216
#        286717
#        304875
#        318830
#        336993
#
# Disc length: 4743 seconds
#
# Revision: 0
# Processed by: cddbd v1.5.2PL0 Copyright (c) Steve Scherf et al.
# Submitted via: ExactAudioCopy v0.99pb4
#
DISCID=f5128514
DTITLE=Various Artist - prevue promo 1125A-1
DYEAR=2003
DGENRE=pop
TTITLE0=Ryan Duarte - You
TTITLE1=MYA - Fallen(Radio Mix)
TTITLE2=Erykah Badu - Back In The Day (Puff - Radio Edit)
TTITLE3=Rod Stewart duet with Cher - Bewitched, Bothered and Bewildered
TTITLE4=Britney Spears with Madonna - Me Against The Music(Rishi Rich'
TTITLE4=s Desi Kulcha Remix)
TTITLE5=Jay Kid - Blame It On The Boogie(Radio Boogie)
TTITLE6=Blu Cantrell and Ian Lewis of Inner Circle - Make Me Wanna Scr
TTITLE6=eam(Lyric)
TTITLE7=Mary J. Blige - Ooh!(G-Unit Remix - Extended Version)
TTITLE8=Tha' Rayne and Joe Budden - Didn't You Know (Remix)
TTITLE9=Beth Gibbons and Rustin Man - Tom The Model
TTITLE10=Kennedys - Stand
TTITLE11=Stereophonics - Maybe Tomorrow(Acoustic)
TTITLE12=Mojave 3 - Bill Oddity
TTITLE13=Counting Crows - She Don't Want Nobody Near
TTITLE14=Loudon Wainwright III - Something For Nothing(Live - Applause
TTITLE14=Tag)
TTITLE15=Dropkick Murphys - Dirty Glass, The(Lyric)
TTITLE16=Smile Empty Soul - Nowhere Kids(Lyric)
TTITLE17=Agents Of The Sun - Come Together (Killer)
TTITLE18=Puddle Of Mudd - Away From Me
TTITLE19=Queensryche - Losing Myself
EXTD=
EXTT0=
EXTT1=
EXTT2=
EXTT3=
EXTT4=
EXTT5=
EXTT6=
EXTT7=
EXTT8=
EXTT9=
EXTT10=
EXTT11=
EXTT12=
EXTT13=
EXTT14=
EXTT15=
EXTT16=
EXTT17=
EXTT18=
EXTT19=
PLAYORDER=
